<svg width="900" height="360" viewBox="0 0 900 360" fill="none" xmlns="http://www.w3.org/2000/svg">
<g filter="url(#filter0_i_0_1)">
<path d="M0 16.0357C0 7.17943 8.99428 2.28882e-05 20.0893 2.28882e-05H879.911C891.006 2.28882e-05 900 7.17942 900 16.0357V343.964C900 352.821 891.006 360 879.911 360H20.0893C8.99426 360 0 352.821 0 343.964V16.0357Z" fill="#CFD7FF"/>
</g>
<path d="M662.112 0H880C891.046 0 900 8.9543 900 20V340C900 351.046 891.046 360 880 360H396L662.112 0Z" fill="url(#paint0_linear_0_1)"/>
<defs>
<filter id="filter0_i_0_1" x="0" y="2.28882e-05" width="900" height="364" filterUnits="userSpaceOnUse" color-interpolation-filters="sRGB">
<feFlood flood-opacity="0" result="BackgroundImageFix"/>
<feBlend mode="normal" in="SourceGraphic" in2="BackgroundImageFix" result="shape"/>
<feColorMatrix in="SourceAlpha" type="matrix" values="0 0 0 0 0 0 0 0 0 0 0 0 0 0 0 0 0 0 127 0" result="hardAlpha"/>
<feOffset dy="4"/>
<feGaussianBlur stdDeviation="2"/>
<feComposite in2="hardAlpha" operator="arithmetic" k2="-1" k3="1"/>
<feColorMatrix type="matrix" values="0 0 0 0 0 0 0 0 0 0 0 0 0 0 0 0 0 0 0.25 0"/>
<feBlend mode="normal" in2="shape" result="effect1_innerShadow_0_1"/>
</filter>
<linearGradient id="paint0_linear_0_1" x1="900" y1="171.581" x2="341.525" y2="171.581" gradientUnits="userSpaceOnUse">
<stop stop-color="#395AFF"/>
<stop offset="1" stop-color="#0BE7FF"/>
</linearGradient>
</defs>
</svg>
