<svg width="216" height="60" viewBox="0 0 216 60" fill="none" xmlns="http://www.w3.org/2000/svg">
<g clip-path="url(#clip0_224_31)">
<g filter="url(#filter0_dd_224_31)">
<circle cx="139" cy="47" r="5" fill="#FF0000"/>
</g>
<path d="M78.6347 52L80.8347 39.5H84.6347L82.9947 48.8H86.7947L86.2347 52H78.6347ZM80.0547 40.4L71.5947 39.5H80.2147L80.0547 40.4ZM79.7347 42.32L71.2547 41.42H79.8747L79.7347 42.32ZM79.3947 44.24L70.9147 43.34H79.5547L79.3947 44.24ZM79.0547 46.16L70.5747 45.26H79.2147L79.0547 46.16ZM78.7147 48.08L70.2347 47.18H78.8747L78.7147 48.08ZM78.3747 50L69.8947 49.1H78.5347L78.3747 50ZM78.0347 51.94L69.5547 51.04H78.1947L78.0347 51.94ZM91.0761 52L93.2761 39.5H97.0761L94.8761 52H91.0761ZM92.4961 40.4L84.0361 39.5H92.6561L92.4961 40.4ZM92.1761 42.32L83.6961 41.42H92.3161L92.1761 42.32ZM91.8361 44.24L83.3561 43.34H91.9961L91.8361 44.24ZM91.4961 46.16L83.0161 45.26H91.6561L91.4961 46.16ZM91.1561 48.08L82.6761 47.18H91.3161L91.1561 48.08ZM90.8161 50L82.3361 49.1H90.9761L90.8161 50ZM90.4761 51.94L81.9961 51.04H90.6361L90.4761 51.94ZM103.234 52L102.494 39.5H106.714V47.44H106.894L109.914 39.5H113.934L108.794 52H103.234ZM101.934 40.4L93.4742 39.5H101.894L101.934 40.4ZM102.054 42.32L93.5742 41.42H101.994L102.054 42.32ZM102.154 44.24L93.6942 43.34H102.114L102.154 44.24ZM102.274 46.16L93.8142 45.26H102.214L102.274 46.16ZM102.394 48.08L93.9342 47.18H102.334L102.394 48.08ZM102.514 50L94.0342 49.1H102.454L102.514 50ZM102.634 51.94L94.1542 51.04H102.574L102.634 51.94ZM117.014 52L119.214 39.5H127.574L126.534 42.7H122.434L122.154 44.38H125.954L125.434 47.28H121.634L121.374 48.8H126.034L125.474 52H117.014ZM118.434 40.4L109.974 39.5H118.594L118.434 40.4ZM118.114 42.32L109.634 41.42H118.254L118.114 42.32ZM117.774 44.24L109.294 43.34H117.934L117.774 44.24ZM117.434 46.16L108.954 45.26H117.594L117.434 46.16ZM117.094 48.08L108.614 47.18H117.254L117.094 48.08ZM116.754 50L108.274 49.1H116.914L116.754 50ZM116.414 51.94L107.934 51.04H116.574L116.414 51.94Z" fill="#FF0000"/>
<path d="M7.344 32L11.304 9.5H25.344L23.436 15.26H17.1L16.596 18.284H22.428L21.456 23.648H15.624L14.184 32H7.344ZM9.9 11.12L-5.328 9.5H10.188L9.9 11.12ZM9.324 14.576L-5.94 12.956H9.576L9.324 14.576ZM8.712 18.032L-6.552 16.412H9L8.712 18.032ZM8.1 21.488L-7.164 19.868H8.388L8.1 21.488ZM7.488 24.944L-7.776 23.324H7.776L7.488 24.944ZM6.876 28.4L-8.388 26.78H7.164L6.876 28.4ZM6.264 31.892L-9 30.272H6.552L6.264 31.892ZM39.8886 32.54C36.7686 32.54 34.5726 31.928 33.3006 30.704C32.0526 29.48 31.4286 27.668 31.4286 25.268C31.4286 24.596 31.4646 23.888 31.5366 23.144C31.6326 22.4 31.7526 21.608 31.8966 20.768C32.3526 18.152 33.0246 15.98 33.9126 14.252C34.8006 12.5 36.0486 11.18 37.6566 10.292C39.2646 9.404 41.3886 8.96 44.0286 8.96C47.1486 8.96 49.3326 9.572 50.5806 10.796C51.8526 11.996 52.4886 13.808 52.4886 16.232C52.4886 17.216 52.4046 18.344 52.2366 19.616C52.0926 20.888 51.8286 22.184 51.4446 23.504C51.0846 24.824 50.5926 26.072 49.9686 27.248C49.3446 28.424 48.5646 29.432 47.6286 30.272C46.6686 31.112 45.5526 31.7 44.2806 32.036C43.0086 32.372 41.5446 32.54 39.8886 32.54ZM35.1366 10.688L24.1206 9.5H36.7566C36.4686 9.668 36.1926 9.848 35.9286 10.04C35.6646 10.232 35.4006 10.448 35.1366 10.688ZM32.6166 14.396L19.1526 12.956H33.3366C33.2166 13.196 33.0966 13.436 32.9766 13.676C32.8566 13.892 32.7366 14.132 32.6166 14.396ZM38.2326 26.384H41.0766C41.8686 26.384 42.5166 26.288 43.0206 26.096C43.5486 25.904 43.8966 25.364 44.0646 24.476L45.7206 15.116H42.8406C42.0486 15.116 41.4006 15.212 40.8966 15.404C40.3926 15.596 40.0566 16.136 39.8886 17.024L38.2326 26.384ZM31.4286 17.888L17.4606 16.412H31.8606L31.4286 17.888ZM30.7446 21.38L16.5966 19.868H30.9966L30.8886 20.588C30.8646 20.732 30.8406 20.876 30.8166 21.02C30.7926 21.14 30.7686 21.26 30.7446 21.38ZM30.3846 24.836L16.2006 23.324H30.4926C30.4206 23.852 30.3846 24.356 30.3846 24.836ZM30.6726 28.292L16.6686 26.78H30.4206C30.4686 27.044 30.5046 27.308 30.5286 27.572C30.5766 27.812 30.6246 28.052 30.6726 28.292ZM32.5806 31.604L20.1246 30.272H31.5006C31.8126 30.824 32.1726 31.268 32.5806 31.604ZM69.244 32.54C66.124 32.54 63.928 31.928 62.656 30.704C61.408 29.48 60.784 27.668 60.784 25.268C60.784 24.596 60.82 23.888 60.892 23.144C60.988 22.4 61.108 21.608 61.252 20.768C61.708 18.152 62.38 15.98 63.268 14.252C64.156 12.5 65.404 11.18 67.012 10.292C68.62 9.404 70.744 8.96 73.384 8.96C76.504 8.96 78.688 9.572 79.936 10.796C81.208 11.996 81.844 13.808 81.844 16.232C81.844 17.216 81.76 18.344 81.592 19.616C81.448 20.888 81.184 22.184 80.8 23.504C80.44 24.824 79.948 26.072 79.324 27.248C78.7 28.424 77.92 29.432 76.984 30.272C76.024 31.112 74.908 31.7 73.636 32.036C72.364 32.372 70.9 32.54 69.244 32.54ZM64.492 10.688L53.476 9.5H66.112C65.824 9.668 65.548 9.848 65.284 10.04C65.02 10.232 64.756 10.448 64.492 10.688ZM61.972 14.396L48.508 12.956H62.692C62.572 13.196 62.452 13.436 62.332 13.676C62.212 13.892 62.092 14.132 61.972 14.396ZM67.588 26.384H70.432C71.224 26.384 71.872 26.288 72.376 26.096C72.904 25.904 73.252 25.364 73.42 24.476L75.076 15.116H72.196C71.404 15.116 70.756 15.212 70.252 15.404C69.748 15.596 69.412 16.136 69.244 17.024L67.588 26.384ZM60.784 17.888L46.816 16.412H61.216L60.784 17.888ZM60.1 21.38L45.952 19.868H60.352L60.244 20.588C60.22 20.732 60.196 20.876 60.172 21.02C60.148 21.14 60.124 21.26 60.1 21.38ZM59.74 24.836L45.556 23.324H59.848C59.776 23.852 59.74 24.356 59.74 24.836ZM60.028 28.292L46.024 26.78H59.776C59.824 27.044 59.86 27.308 59.884 27.572C59.932 27.812 59.98 28.052 60.028 28.292ZM61.936 31.604L49.48 30.272H60.856C61.168 30.824 61.528 31.268 61.936 31.604ZM94.4595 32L97.3755 15.26H92.4435L93.4875 9.5H110.228L109.184 15.26H104.216L101.3 32H94.4595ZM92.0475 11.12L76.8195 9.5H92.3355L92.0475 11.12ZM91.4715 14.576L76.2075 12.956H91.7235L91.4715 14.576ZM95.7915 18.032L80.5275 16.412H96.0795L95.7915 18.032ZM95.1795 21.488L79.9155 19.868H95.4675L95.1795 21.488ZM94.5675 24.944L79.3035 23.324H94.8555L94.5675 24.944ZM93.9555 28.4L78.6915 26.78H94.2435L93.9555 28.4ZM93.3435 31.892L78.0795 30.272H93.6315L93.3435 31.892ZM116.188 32L120.148 9.5H131.236C132.988 9.5 134.248 9.8 135.016 10.4C135.784 11 136.168 11.924 136.168 13.172C136.168 15.092 135.736 16.628 134.872 17.78C134.032 18.908 133.084 19.604 132.028 19.868L131.992 20.084C133.168 20.3 133.996 20.792 134.476 21.56C134.98 22.328 135.232 23.264 135.232 24.368C135.232 25.712 134.98 26.972 134.476 28.148C133.996 29.3 133.252 30.236 132.244 30.956C131.26 31.652 130.012 32 128.5 32H116.188ZM118.744 11.12L103.516 9.5H119.032L118.744 11.12ZM118.168 14.576L102.904 12.956H118.42L118.168 14.576ZM125.512 17.78H127.636C128.26 17.78 128.692 17.54 128.932 17.06C129.172 16.58 129.292 16.04 129.292 15.44C129.292 15.128 129.22 14.888 129.076 14.72C128.932 14.528 128.668 14.432 128.284 14.432H126.124L125.512 17.78ZM117.556 18.032L102.292 16.412H117.844L117.556 18.032ZM116.944 21.488L101.68 19.868H117.232L116.944 21.488ZM123.928 26.708H126.592C127.24 26.708 127.708 26.456 127.996 25.952C128.284 25.448 128.428 24.86 128.428 24.188C128.428 23.852 128.344 23.576 128.176 23.36C128.008 23.144 127.708 23.036 127.276 23.036H124.576L123.928 26.708ZM116.332 24.944L101.068 23.324H116.62L116.332 24.944ZM115.72 28.4L100.456 26.78H116.008L115.72 28.4ZM115.108 31.892L99.8438 30.272H115.396L115.108 31.892ZM143.635 32L153.103 9.5H163.687L165.271 32H158.035L157.891 28.436H152.239L150.835 32H143.635ZM151.267 11.048L136.579 9.5H151.915L151.267 11.048ZM149.791 14.504L135.103 12.956H150.439L149.791 14.504ZM148.351 17.996L133.627 16.412H148.999L148.351 17.996ZM154.471 22.712H157.351V16.412H156.991L154.471 22.712ZM146.875 21.452L132.151 19.868H147.559L146.875 21.452ZM145.435 24.908L130.675 23.324H146.083L145.435 24.908ZM143.959 28.364L129.199 26.78H144.643L143.959 28.364ZM142.483 31.856L127.723 30.272H143.167L142.483 31.856ZM174.688 32L178.648 9.5H185.488L182.536 26.24H189.376L188.368 32H174.688ZM177.244 11.12L162.016 9.5H177.532L177.244 11.12ZM176.668 14.576L161.404 12.956H176.92L176.668 14.576ZM176.056 18.032L160.792 16.412H176.344L176.056 18.032ZM175.444 21.488L160.18 19.868H175.732L175.444 21.488ZM174.832 24.944L159.568 23.324H175.12L174.832 24.944ZM174.22 28.4L158.956 26.78H174.508L174.22 28.4ZM173.608 31.892L158.344 30.272H173.896L173.608 31.892ZM197.082 32L201.042 9.5H207.882L204.93 26.24H211.77L210.762 32H197.082ZM199.638 11.12L184.41 9.5H199.926L199.638 11.12ZM199.062 14.576L183.798 12.956H199.314L199.062 14.576ZM198.45 18.032L183.186 16.412H198.738L198.45 18.032ZM197.838 21.488L182.574 19.868H198.126L197.838 21.488ZM197.226 24.944L181.962 23.324H197.514L197.226 24.944ZM196.614 28.4L181.35 26.78H196.902L196.614 28.4ZM196.002 31.892L180.738 30.272H196.29L196.002 31.892Z" fill="#0000FF"/>
</g>
<defs>
<filter id="filter0_dd_224_31" x="129" y="37" width="20" height="20" filterUnits="userSpaceOnUse" color-interpolation-filters="sRGB">
<feFlood flood-opacity="0" result="BackgroundImageFix"/>
<feColorMatrix in="SourceAlpha" type="matrix" values="0 0 0 0 0 0 0 0 0 0 0 0 0 0 0 0 0 0 127 0" result="hardAlpha"/>
<feMorphology radius="5" operator="dilate" in="SourceAlpha" result="effect1_dropShadow_224_31"/>
<feOffset/>
<feColorMatrix type="matrix" values="0 0 0 0 1 0 0 0 0 0 0 0 0 0 0 0 0 0 0.3 0"/>
<feBlend mode="normal" in2="BackgroundImageFix" result="effect1_dropShadow_224_31"/>
<feColorMatrix in="SourceAlpha" type="matrix" values="0 0 0 0 0 0 0 0 0 0 0 0 0 0 0 0 0 0 127 0" result="hardAlpha"/>
<feMorphology radius="3" operator="dilate" in="SourceAlpha" result="effect2_dropShadow_224_31"/>
<feOffset/>
<feComposite in2="hardAlpha" operator="out"/>
<feColorMatrix type="matrix" values="0 0 0 0 1 0 0 0 0 0 0 0 0 0 0 0 0 0 0.25 0"/>
<feBlend mode="normal" in2="effect1_dropShadow_224_31" result="effect2_dropShadow_224_31"/>
<feBlend mode="normal" in="SourceGraphic" in2="effect2_dropShadow_224_31" result="shape"/>
</filter>
<clipPath id="clip0_224_31">
<rect width="213" height="55" fill="white" transform="translate(2 2)"/>
</clipPath>
</defs>
</svg>
